<?xml version="1.0" encoding="utf-8"?>
<!-- Generator: Adobe Illustrator 22.1.0, SVG Export Plug-In . SVG Version: 6.00 Build 0)  -->
<svg version="1.1" id="レイヤー_1" xmlns="http://www.w3.org/2000/svg" xmlns:xlink="http://www.w3.org/1999/xlink" x="0px"
	 y="0px" viewBox="0 0 1301 156.2" style="enable-background:new 0 0 1301 156.2;" xml:space="preserve">
<style type="text/css">
	.st0{fill:none;stroke:#FFFFFF;stroke-width:3;stroke-linecap:round;stroke-linejoin:round;}
	.st1{fill:#1C2D59;}
</style>
<g>
	<g>
		<g>
			<g>
				<g>
					<g>
						<path class="st0" d="M47.2,7.7v14.2h43.5v78.5c0,2.1,0.8,3.1,2.4,3.1h4.5c2.5,0,4.5-0.3,5.9-0.9c1.5-0.6,3.1-1.7,4.9-3.6v30
							c-1.9,1.3-3.6,2.2-5.1,2.8c-1.5,0.5-3.5,0.8-5.9,0.8H86c-6.1,0-10.9-2.6-14.5-7.7c-3.6-5.1-5.4-11.6-5.4-19.4V50.4H47.2
							c0,22.4-3.4,40.3-10.3,53.6c-6.9,13.3-17.5,23.3-31.9,30V97.5c6.9-3.8,11.7-9.2,14.3-16.1c2.6-7,3.9-17.3,3.9-31H5.7V21.9
							h17.5V7.7H47.2z"/>
						<path class="st0" d="M225.9,134h-21.7V84.6h-8.1l-2.8-26.1v74.1h-21.5v-48h-8.3l-2.9-25.7v16.8c0,14.3-2.7,26.6-8.1,36.9
							c-5.9,11.3-14.2,18.4-25,21.4V104c4.3-2.2,7.3-5.5,9-10c1.7-4.5,2.6-10.6,2.6-18.2V54.5c-0.6,7.4-1.1,13.9-1.8,19.5
							c-0.6,5.6-1.2,9.2-1.6,10.6h-11.2c0.9-3,1.8-10.5,2.7-22.3c0.9-11.9,1.3-22.2,1.3-31h10.5V7.7h21.5v23.6h8.1l3,26.1V7.7h21.5
							v23.6h8.3l2.7,24.1V7.7h21.7V134z"/>
					</g>
				</g>
			</g>
		</g>
		<g>
			<polygon class="st0" points="370,64.1 354.6,57.2 354.6,7.9 331.7,7.9 331.7,47 314.3,39.3 296.8,47 296.8,7.9 273.9,7.9 
				273.9,57.2 258.5,64.1 266.7,82.6 273.9,79.4 273.9,134.5 296.8,134.5 296.8,69.2 314.3,61.5 331.7,69.2 331.7,134.5 
				354.6,134.5 354.6,79.4 361.8,82.6 			"/>
			<path class="st0" d="M605.8,104.5c1.8-3.9,3-9.9,3-13.5h14.8c0,9.7-3.6,18.8-8.7,26.4l11.2,16.5h-18.2L603,127
				c-4.3,5.4-12.1,8.6-20.4,8.6c-21.5,0-26.1-15.8-26.1-25.8c0-10.4,6.5-18.9,17.1-25.8l-3-4.7c-4.8-7.4-5.7-11-5.7-16.1
				c0-11.7,8.9-18.8,21.6-18.8c14.5,0,21.2,8.2,21.2,18.6c0,8.9-4.8,15.8-14.7,23.2L605.8,104.5z M581.6,94.7
				c-6.4,5.3-8.7,9.7-8.7,15.2c0,5.6,4.1,11.8,11.9,11.8c4.7,0,8.2-1.9,11.1-5.6L581.6,94.7z M583.3,72.6l2,3l3.1-2.8
				c3.8-3.3,5.4-6.6,5.4-9.8c0-4.9-3.1-7.5-7.5-7.5c-4.1,0-7.2,2.6-7.2,7.2C579,65.2,580.5,68.6,583.3,72.6"/>
			<path class="st0" d="M390.7,75.8c17.5-0.3,22.3,10.1,22.3,29.8c0,19.4-5.7,29.8-22.3,29.8c-17.4,0.3-22.3-10.1-22.3-29.8
				C368.4,86.2,374.1,75.8,390.7,75.8 M390.7,125.5c5.9,0,7.8-5.8,7.8-19.9c0-14.1-1.9-19.9-7.8-19.9c-7.1,0-7.8,8.3-7.8,19.9
				C382.9,117.2,383.6,125.5,390.7,125.5"/>
			<path class="st0" d="M422.2,77.3H436v5.8h0.3c3.7-5.2,8.2-7.3,14.3-7.3c6.6,0,11.5,3.3,13.1,9h0.2c2.2-6,7.5-9,14.3-9
				c9.6,0,14.1,6,14.1,17v41.1h-14.5V94.4c0-4.8-1.6-7.4-5.7-7.4c-4.6,0-7.6,3.2-7.6,9.7v37.2h-14.5V94.4c0-4.8-1.6-7.4-5.7-7.4
				c-4.6,0-7.6,3.2-7.6,9.7v37.2h-14.5V77.3z"/>
			<path class="st0" d="M515.7,107.8v4.5c0,6.6,1.8,13.2,7.1,13.2c4.8,0,6.8-3.7,7.7-10.6h13.1c-0.6,13.1-6.9,20.5-20.5,20.5
				c-21,0-21.9-16.2-21.9-30.3c0-15.1,3-29.2,22.5-29.2c16.9,0,20.7,11.4,20.7,28.7v3.3H515.7z M530.5,99.2
				c-0.3-8.6-1.4-13.5-7.3-13.5c-5.8,0-7.5,6-7.5,11.3v2.2H530.5z"/>
			<path class="st0" d="M759.4,127.3h-0.2c-3.1,5.6-8.3,8.1-14.4,8.1c-9,0-14.4-4.9-14.4-16.1v-42h14.5v39c0,5.7,1.9,7.9,6.2,7.9
				c5,0,7.7-3,7.7-9.4V77.3h14.5v56.6h-13.9V127.3z"/>
			<path class="st0" d="M782.7,57.9h14.5v12.4h-14.5V57.9z M782.7,77.3h14.5v56.6h-14.5V77.3z"/>
			<rect x="807.1" y="58.8" class="st0" width="14.5" height="75.1"/>
			<path class="st0" d="M860,127.9h-0.2c-3.2,5.2-7.1,7.5-12.8,7.5c-11.9,0-17.4-8.7-17.4-29.8c0-21,5.5-29.8,17.4-29.8
				c5.5,0,9.1,2.2,12.2,6.7h0.2V58.8h14.5v75.1H860V127.9z M851.7,124.2c6.4,0,7.7-6.3,7.7-18.6c0-12.3-1.3-18.6-7.7-18.6
				c-6.3,0-7.6,6.3-7.6,18.6C844.2,117.9,845.4,124.2,851.7,124.2"/>
			<path class="st0" d="M883.3,57.9h14.5v12.4h-14.5V57.9z M883.3,77.3h14.5v56.6h-14.5V77.3z"/>
			<path class="st0" d="M907.2,77.3h13.9v6.6h0.2c3.1-5.6,8.3-8.1,14.4-8.1c9,0,14.4,4.9,14.4,16.1v42h-14.5v-39
				c0-5.7-1.9-7.9-6.2-7.9c-4.9,0-7.7,3.1-7.7,9.4v37.6h-14.5V77.3z"/>
			<path class="st0" d="M1001.3,77.3v53.8c0,15-6.6,22.2-23.6,22.2c-12.3,0-19.2-5.4-19.2-15.1h13.9c0,1.9,0.8,3.4,2.2,4.3
				c1.4,1,3.1,1.6,4.8,1.6c5.9,0,8-4.4,8-10.2v-7.5h-0.2c-2.9,4.2-7.5,7-12.1,7c-11.6,0-17.4-7.9-17.4-28.7c0-13.2,2-28.8,17.8-28.8
				c4,0,9,1.9,11.7,7.8h0.2v-6.3H1001.3z M979.6,122.1c6.1,0,7.9-6.6,7.9-16.2c0-13.8-1.8-18.9-7.6-18.9c-6.4,0-7.6,5.1-7.6,20.4
				C972.3,115.2,973.4,122.1,979.6,122.1"/>
			<path class="st0" d="M710.4,56.1V9h-71.3v124.5h80.7V56.1H710.4z M661,30.6h27.4v25.5H661V30.6z M697.9,111.9H661V77.7h36.9
				V111.9z"/>
			<path class="st0" d="M1049.6,94.7v3.7c0,11.8,3.3,19.3,16.7,19.3c7.7,0,15.1-4.9,15.1-15.4c0-11.4-5.8-15.6-22.5-21.4
				c-22.5-7.8-32.9-17.1-32.9-38C1026,18.5,1041,6,1064.9,6c22.5,0,38.8,9.6,38.8,33.7v3.5h-24.3c0-11.8-4.1-18.6-13.7-18.6
				c-11.4,0-14.4,7.2-14.4,14.6c0,7.7,2.3,12.5,13,17.1l19.5,8.4c19,8.3,23.9,17.9,23.9,33.2c0,26.5-16.1,38.5-43.6,38.5
				c-28.6,0-39.9-13.4-39.9-36.6v-5.1H1049.6z"/>
			<path class="st0" d="M1119.6,58.8h14.5v24.3h0.2c2.7-4.9,7.7-7.3,13.8-7.3c9,0,14.4,4.9,14.4,16.1v42H1148v-39
				c0-5.7-1.9-7.9-6.2-7.9c-4.9,0-7.7,3.1-7.7,9.4v37.6h-14.5V58.8z"/>
			<path class="st0" d="M1194.5,75.8c17.4-0.3,22.3,10.1,22.3,29.8c0,19.4-5.7,29.8-22.3,29.8c-17.5,0.3-22.3-10.1-22.3-29.8
				C1172.2,86.2,1177.9,75.8,1194.5,75.8 M1194.5,125.5c5.9,0,7.8-5.8,7.8-19.9c0-14.1-1.9-19.9-7.8-19.9c-7.2,0-7.8,8.3-7.8,19.9
				C1186.7,117.2,1187.4,125.5,1194.5,125.5"/>
			<polygon class="st0" points="1222.4,77.3 1236.9,77.3 1243.6,117.5 1243.8,117.5 1250.8,77.3 1266.6,77.3 1274.1,117.5 
				1274.3,117.5 1281.1,77.3 1295,77.3 1282.8,133.9 1266.3,133.9 1258.8,93.7 1258.6,93.7 1251.6,133.9 1234.7,133.9 			"/>
		</g>
	</g>
	<g>
		<g>
			<g>
				<g>
					<g>
						<path class="st1" d="M47.2,7.7v14.2h43.5v78.5c0,2.1,0.8,3.1,2.4,3.1h4.5c2.5,0,4.5-0.3,5.9-0.9c1.5-0.6,3.1-1.7,4.9-3.6v30
							c-1.9,1.3-3.6,2.2-5.1,2.8c-1.5,0.5-3.5,0.8-5.9,0.8H86c-6.1,0-10.9-2.6-14.5-7.7c-3.6-5.1-5.4-11.6-5.4-19.4V50.4H47.2
							c0,22.4-3.4,40.3-10.3,53.6c-6.9,13.3-17.5,23.3-31.9,30V97.5c6.9-3.8,11.7-9.2,14.3-16.1c2.6-7,3.9-17.3,3.9-31H5.7V21.9
							h17.5V7.7H47.2z"/>
						<path class="st1" d="M225.9,134h-21.7V84.6h-8.1l-2.8-26.1v74.1h-21.5v-48h-8.3l-2.9-25.7v16.8c0,14.3-2.7,26.6-8.1,36.9
							c-5.9,11.3-14.2,18.4-25,21.4V104c4.3-2.2,7.3-5.5,9-10c1.7-4.5,2.6-10.6,2.6-18.2V54.5c-0.6,7.4-1.1,13.9-1.8,19.5
							c-0.6,5.6-1.2,9.2-1.6,10.6h-11.2c0.9-3,1.8-10.5,2.7-22.3c0.9-11.9,1.3-22.2,1.3-31h10.5V7.7h21.5v23.6h8.1l3,26.1V7.7h21.5
							v23.6h8.3l2.7,24.1V7.7h21.7V134z"/>
					</g>
				</g>
			</g>
		</g>
		<g>
			<polygon class="st1" points="370,64.1 354.6,57.2 354.6,7.9 331.7,7.9 331.7,47 314.3,39.3 296.8,47 296.8,7.9 273.9,7.9 
				273.9,57.2 258.5,64.1 266.7,82.6 273.9,79.4 273.9,134.5 296.8,134.5 296.8,69.2 314.3,61.5 331.7,69.2 331.7,134.5 
				354.6,134.5 354.6,79.4 361.8,82.6 			"/>
			<path class="st1" d="M605.8,104.5c1.8-3.9,3-9.9,3-13.5h14.8c0,9.7-3.6,18.8-8.7,26.4l11.2,16.5h-18.2L603,127
				c-4.3,5.4-12.1,8.6-20.4,8.6c-21.5,0-26.1-15.8-26.1-25.8c0-10.4,6.5-18.9,17.1-25.8l-3-4.7c-4.8-7.4-5.7-11-5.7-16.1
				c0-11.7,8.9-18.8,21.6-18.8c14.5,0,21.2,8.2,21.2,18.6c0,8.9-4.8,15.8-14.7,23.2L605.8,104.5z M581.6,94.7
				c-6.4,5.3-8.7,9.7-8.7,15.2c0,5.6,4.1,11.8,11.9,11.8c4.7,0,8.2-1.9,11.1-5.6L581.6,94.7z M583.3,72.6l2,3l3.1-2.8
				c3.8-3.3,5.4-6.6,5.4-9.8c0-4.9-3.1-7.5-7.5-7.5c-4.1,0-7.2,2.6-7.2,7.2C579,65.2,580.5,68.6,583.3,72.6"/>
			<path class="st1" d="M390.7,75.8c17.5-0.3,22.3,10.1,22.3,29.8c0,19.4-5.7,29.8-22.3,29.8c-17.4,0.3-22.3-10.1-22.3-29.8
				C368.4,86.2,374.1,75.8,390.7,75.8 M390.7,125.5c5.9,0,7.8-5.8,7.8-19.9c0-14.1-1.9-19.9-7.8-19.9c-7.1,0-7.8,8.3-7.8,19.9
				C382.9,117.2,383.6,125.5,390.7,125.5"/>
			<path class="st1" d="M422.2,77.3H436v5.8h0.3c3.7-5.2,8.2-7.3,14.3-7.3c6.6,0,11.5,3.3,13.1,9h0.2c2.2-6,7.5-9,14.3-9
				c9.6,0,14.1,6,14.1,17v41.1h-14.5V94.4c0-4.8-1.6-7.4-5.7-7.4c-4.6,0-7.6,3.2-7.6,9.7v37.2h-14.5V94.4c0-4.8-1.6-7.4-5.7-7.4
				c-4.6,0-7.6,3.2-7.6,9.7v37.2h-14.5V77.3z"/>
			<path class="st1" d="M515.7,107.8v4.5c0,6.6,1.8,13.2,7.1,13.2c4.8,0,6.8-3.7,7.7-10.6h13.1c-0.6,13.1-6.9,20.5-20.5,20.5
				c-21,0-21.9-16.2-21.9-30.3c0-15.1,3-29.2,22.5-29.2c16.9,0,20.7,11.4,20.7,28.7v3.3H515.7z M530.5,99.2
				c-0.3-8.6-1.4-13.5-7.3-13.5c-5.8,0-7.5,6-7.5,11.3v2.2H530.5z"/>
			<path class="st1" d="M759.4,127.3h-0.2c-3.1,5.6-8.3,8.1-14.4,8.1c-9,0-14.4-4.9-14.4-16.1v-42h14.5v39c0,5.7,1.9,7.9,6.2,7.9
				c5,0,7.7-3,7.7-9.4V77.3h14.5v56.6h-13.9V127.3z"/>
			<path class="st1" d="M782.7,57.9h14.5v12.4h-14.5V57.9z M782.7,77.3h14.5v56.6h-14.5V77.3z"/>
			<rect x="807.1" y="58.8" class="st1" width="14.5" height="75.1"/>
			<path class="st1" d="M860,127.9h-0.2c-3.2,5.2-7.1,7.5-12.8,7.5c-11.9,0-17.4-8.7-17.4-29.8c0-21,5.5-29.8,17.4-29.8
				c5.5,0,9.1,2.2,12.2,6.7h0.2V58.8h14.5v75.1H860V127.9z M851.7,124.2c6.4,0,7.7-6.3,7.7-18.6c0-12.3-1.3-18.6-7.7-18.6
				c-6.3,0-7.6,6.3-7.6,18.6C844.2,117.9,845.4,124.2,851.7,124.2"/>
			<path class="st1" d="M883.3,57.9h14.5v12.4h-14.5V57.9z M883.3,77.3h14.5v56.6h-14.5V77.3z"/>
			<path class="st1" d="M907.2,77.3h13.9v6.6h0.2c3.1-5.6,8.3-8.1,14.4-8.1c9,0,14.4,4.9,14.4,16.1v42h-14.5v-39
				c0-5.7-1.9-7.9-6.2-7.9c-4.9,0-7.7,3.1-7.7,9.4v37.6h-14.5V77.3z"/>
			<path class="st1" d="M1001.3,77.3v53.8c0,15-6.6,22.2-23.6,22.2c-12.3,0-19.2-5.4-19.2-15.1h13.9c0,1.9,0.8,3.4,2.2,4.3
				c1.4,1,3.1,1.6,4.8,1.6c5.9,0,8-4.4,8-10.2v-7.5h-0.2c-2.9,4.2-7.5,7-12.1,7c-11.6,0-17.4-7.9-17.4-28.7c0-13.2,2-28.8,17.8-28.8
				c4,0,9,1.9,11.7,7.8h0.2v-6.3H1001.3z M979.6,122.1c6.1,0,7.9-6.6,7.9-16.2c0-13.8-1.8-18.9-7.6-18.9c-6.4,0-7.6,5.1-7.6,20.4
				C972.3,115.2,973.4,122.1,979.6,122.1"/>
			<path class="st1" d="M710.4,56.1V9h-71.3v124.5h80.7V56.1H710.4z M661,30.6h27.4v25.5H661V30.6z M697.9,111.9H661V77.7h36.9
				V111.9z"/>
			<path class="st1" d="M1049.6,94.7v3.7c0,11.8,3.3,19.3,16.7,19.3c7.7,0,15.1-4.9,15.1-15.4c0-11.4-5.8-15.6-22.5-21.4
				c-22.5-7.8-32.9-17.1-32.9-38C1026,18.5,1041,6,1064.9,6c22.5,0,38.8,9.6,38.8,33.7v3.5h-24.3c0-11.8-4.1-18.6-13.7-18.6
				c-11.4,0-14.4,7.2-14.4,14.6c0,7.7,2.3,12.5,13,17.1l19.5,8.4c19,8.3,23.9,17.9,23.9,33.2c0,26.5-16.1,38.5-43.6,38.5
				c-28.6,0-39.9-13.4-39.9-36.6v-5.1H1049.6z"/>
			<path class="st1" d="M1119.6,58.8h14.5v24.3h0.2c2.7-4.9,7.7-7.3,13.8-7.3c9,0,14.4,4.9,14.4,16.1v42H1148v-39
				c0-5.7-1.9-7.9-6.2-7.9c-4.9,0-7.7,3.1-7.7,9.4v37.6h-14.5V58.8z"/>
			<path class="st1" d="M1194.5,75.8c17.4-0.3,22.3,10.1,22.3,29.8c0,19.4-5.7,29.8-22.3,29.8c-17.5,0.3-22.3-10.1-22.3-29.8
				C1172.2,86.2,1177.9,75.8,1194.5,75.8 M1194.5,125.5c5.9,0,7.8-5.8,7.8-19.9c0-14.1-1.9-19.9-7.8-19.9c-7.2,0-7.8,8.3-7.8,19.9
				C1186.7,117.2,1187.4,125.5,1194.5,125.5"/>
			<polygon class="st1" points="1222.4,77.3 1236.9,77.3 1243.6,117.5 1243.8,117.5 1250.8,77.3 1266.6,77.3 1274.1,117.5 
				1274.3,117.5 1281.1,77.3 1295,77.3 1282.8,133.9 1266.3,133.9 1258.8,93.7 1258.6,93.7 1251.6,133.9 1234.7,133.9 			"/>
		</g>
	</g>
</g>
<g>
</g>
<g>
</g>
<g>
</g>
<g>
</g>
<g>
</g>
<g>
</g>
<g>
</g>
<g>
</g>
<g>
</g>
<g>
</g>
<g>
</g>
<g>
</g>
<g>
</g>
<g>
</g>
<g>
</g>
</svg>
